<svg xmlns="http://www.w3.org/2000/svg" xmlns:xlink="http://www.w3.org/1999/xlink" width="500" zoomAndPan="magnify" viewBox="0 0 375 374.999991" height="500" preserveAspectRatio="xMidYMid meet" version="1.0"><defs><g/><clipPath id="3e1e2695f9"><path d="M 248 144 L 253 144 L 253 189.859375 L 248 189.859375 Z M 248 144 " clip-rule="nonzero"/></clipPath><clipPath id="a476001754"><path d="M 118 185 L 262.796875 185 L 262.796875 189.859375 L 118 189.859375 Z M 118 185 " clip-rule="nonzero"/></clipPath><clipPath id="6f1c46ef0d"><path d="M 112.796875 117 L 121 117 L 121 121 L 112.796875 121 Z M 112.796875 117 " clip-rule="nonzero"/></clipPath><clipPath id="41ac1c5f64"><path d="M 132 96.109375 L 135 96.109375 L 135 105 L 132 105 Z M 132 96.109375 " clip-rule="nonzero"/></clipPath></defs><g fill="#322f30" fill-opacity="1"><g transform="translate(43.338796, 245.982455)"><g><path d="M 5.875 0 L 5.875 -84.3125 L 23.234375 -84.3125 L 23.234375 0 Z M 5.875 0 "/></g></g></g><g fill="#322f30" fill-opacity="1"><g transform="translate(64.119675, 245.982455)"><g><path d="M 56.765625 -22.75 L 20.296875 -22.75 C 20.296875 -19.21875 21.4375 -16.601562 23.71875 -14.90625 C 26.007812 -13.207031 28.492188 -12.359375 31.171875 -12.359375 C 33.984375 -12.359375 36.207031 -12.734375 37.84375 -13.484375 C 39.476562 -14.234375 41.335938 -15.71875 43.421875 -17.9375 L 55.96875 -11.671875 C 50.75 -2.910156 42.0625 1.46875 29.90625 1.46875 C 22.320312 1.46875 15.816406 -1.125 10.390625 -6.3125 C 4.960938 -11.507812 2.25 -17.769531 2.25 -25.09375 C 2.25 -32.414062 4.960938 -38.691406 10.390625 -43.921875 C 15.816406 -49.148438 22.320312 -51.765625 29.90625 -51.765625 C 37.875 -51.765625 44.359375 -49.457031 49.359375 -44.84375 C 54.359375 -40.238281 56.859375 -33.65625 56.859375 -25.09375 C 56.859375 -23.914062 56.828125 -23.132812 56.765625 -22.75 Z M 20.78125 -32.34375 L 39.90625 -32.34375 C 39.507812 -34.957031 38.476562 -36.96875 36.8125 -38.375 C 35.144531 -39.78125 33.003906 -40.484375 30.390625 -40.484375 C 27.515625 -40.484375 25.226562 -39.734375 23.53125 -38.234375 C 21.832031 -36.734375 20.914062 -34.769531 20.78125 -32.34375 Z M 20.78125 -32.34375 "/></g></g></g><g fill="#322f30" fill-opacity="1"><g transform="translate(114.897127, 245.982455)"><g><path d="M 7.546875 -78.3125 C 9.578125 -80.34375 11.992188 -81.359375 14.796875 -81.359375 C 17.609375 -81.359375 20.023438 -80.34375 22.046875 -78.3125 C 24.078125 -76.289062 25.09375 -73.875 25.09375 -71.0625 C 25.09375 -68.257812 24.078125 -65.84375 22.046875 -63.8125 C 20.023438 -61.789062 17.609375 -60.78125 14.796875 -60.78125 C 11.992188 -60.78125 9.578125 -61.789062 7.546875 -63.8125 C 5.523438 -65.84375 4.515625 -68.257812 4.515625 -71.0625 C 4.515625 -73.875 5.523438 -76.289062 7.546875 -78.3125 Z M 5.875 -50.296875 L 5.875 0 L 23.234375 0 L 23.234375 -50.296875 Z M 5.875 -50.296875 "/></g></g></g><g fill="#322f30" fill-opacity="1"><g transform="translate(136.16815, 245.982455)"><g><path d="M 27.75 -51.765625 C 30.625 -51.765625 33.460938 -51.4375 36.265625 -50.78125 C 39.078125 -50.125 41.171875 -49.46875 42.546875 -48.8125 L 44.609375 -47.84375 L 38.921875 -36.46875 C 34.992188 -38.5625 31.269531 -39.609375 27.75 -39.609375 C 25.78125 -39.609375 24.382812 -39.394531 23.5625 -38.96875 C 22.75 -38.539062 22.34375 -37.738281 22.34375 -36.5625 C 22.34375 -36.300781 22.375 -36.039062 22.4375 -35.78125 C 22.507812 -35.519531 22.644531 -35.273438 22.84375 -35.046875 C 23.039062 -34.816406 23.21875 -34.617188 23.375 -34.453125 C 23.539062 -34.296875 23.816406 -34.117188 24.203125 -33.921875 C 24.597656 -33.722656 24.910156 -33.570312 25.140625 -33.46875 C 25.367188 -33.375 25.742188 -33.226562 26.265625 -33.03125 C 26.796875 -32.84375 27.191406 -32.695312 27.453125 -32.59375 C 27.710938 -32.5 28.148438 -32.351562 28.765625 -32.15625 C 29.390625 -31.957031 29.863281 -31.828125 30.1875 -31.765625 C 32.21875 -31.171875 33.984375 -30.515625 35.484375 -29.796875 C 36.984375 -29.078125 38.566406 -28.097656 40.234375 -26.859375 C 41.898438 -25.617188 43.191406 -24.050781 44.109375 -22.15625 C 45.023438 -20.257812 45.484375 -18.101562 45.484375 -15.6875 C 45.484375 -4.25 37.546875 1.46875 21.671875 1.46875 C 18.066406 1.46875 14.644531 0.914062 11.40625 -0.1875 C 8.175781 -1.300781 5.84375 -2.414062 4.40625 -3.53125 L 2.25 -5.296875 L 9.3125 -17.15625 C 9.832031 -16.695312 10.515625 -16.15625 11.359375 -15.53125 C 12.210938 -14.914062 13.75 -14.066406 15.96875 -12.984375 C 18.195312 -11.910156 20.128906 -11.375 21.765625 -11.375 C 25.359375 -11.375 27.15625 -12.582031 27.15625 -15 C 27.15625 -16.113281 26.695312 -16.976562 25.78125 -17.59375 C 24.863281 -18.21875 23.3125 -18.921875 21.125 -19.703125 C 18.9375 -20.484375 17.222656 -21.203125 15.984375 -21.859375 C 12.847656 -23.492188 10.363281 -25.335938 8.53125 -27.390625 C 6.695312 -29.453125 5.78125 -32.179688 5.78125 -35.578125 C 5.78125 -40.679688 7.753906 -44.65625 11.703125 -47.5 C 15.660156 -50.34375 21.007812 -51.765625 27.75 -51.765625 Z M 27.75 -51.765625 "/></g></g></g><g fill="#322f30" fill-opacity="1"><g transform="translate(176.064484, 245.982455)"><g><path d="M 22.25 -50.296875 L 22.25 -26.375 C 22.25 -21.40625 23 -17.875 24.5 -15.78125 C 26.007812 -13.6875 28.5625 -12.640625 32.15625 -12.640625 C 35.75 -12.640625 38.296875 -13.6875 39.796875 -15.78125 C 41.304688 -17.875 42.0625 -21.40625 42.0625 -26.375 L 42.0625 -50.296875 L 59.40625 -50.296875 L 59.40625 -22.15625 C 59.40625 -13.789062 57.234375 -7.757812 52.890625 -4.0625 C 48.546875 -0.375 41.632812 1.46875 32.15625 1.46875 C 22.675781 1.46875 15.765625 -0.375 11.421875 -4.0625 C 7.078125 -7.757812 4.90625 -13.789062 4.90625 -22.15625 L 4.90625 -50.296875 Z M 22.25 -50.296875 "/></g></g></g><g fill="#322f30" fill-opacity="1"><g transform="translate(232.037412, 245.982455)"><g><path d="M 5.875 0 L 5.875 -50.296875 L 23.234375 -50.296875 L 23.234375 -43.03125 L 23.421875 -43.03125 C 23.554688 -43.289062 23.769531 -43.617188 24.0625 -44.015625 C 24.363281 -44.410156 25.003906 -45.097656 25.984375 -46.078125 C 26.960938 -47.054688 28.003906 -47.9375 29.109375 -48.71875 C 30.222656 -49.5 31.660156 -50.203125 33.421875 -50.828125 C 35.191406 -51.453125 36.992188 -51.765625 38.828125 -51.765625 C 40.710938 -51.765625 42.570312 -51.5 44.40625 -50.96875 C 46.238281 -50.445312 47.578125 -49.925781 48.421875 -49.40625 L 49.796875 -48.625 L 42.546875 -33.921875 C 40.390625 -35.742188 37.382812 -36.65625 33.53125 -36.65625 C 31.4375 -36.65625 29.632812 -36.195312 28.125 -35.28125 C 26.625 -34.375 25.5625 -33.265625 24.9375 -31.953125 C 24.320312 -30.648438 23.882812 -29.539062 23.625 -28.625 C 23.363281 -27.707031 23.234375 -26.988281 23.234375 -26.46875 L 23.234375 0 Z M 5.875 0 "/></g></g></g><g fill="#322f30" fill-opacity="1"><g transform="translate(272.521914, 245.982455)"><g><path d="M 56.765625 -22.75 L 20.296875 -22.75 C 20.296875 -19.21875 21.4375 -16.601562 23.71875 -14.90625 C 26.007812 -13.207031 28.492188 -12.359375 31.171875 -12.359375 C 33.984375 -12.359375 36.207031 -12.734375 37.84375 -13.484375 C 39.476562 -14.234375 41.335938 -15.71875 43.421875 -17.9375 L 55.96875 -11.671875 C 50.75 -2.910156 42.0625 1.46875 29.90625 1.46875 C 22.320312 1.46875 15.816406 -1.125 10.390625 -6.3125 C 4.960938 -11.507812 2.25 -17.769531 2.25 -25.09375 C 2.25 -32.414062 4.960938 -38.691406 10.390625 -43.921875 C 15.816406 -49.148438 22.320312 -51.765625 29.90625 -51.765625 C 37.875 -51.765625 44.359375 -49.457031 49.359375 -44.84375 C 54.359375 -40.238281 56.859375 -33.65625 56.859375 -25.09375 C 56.859375 -23.914062 56.828125 -23.132812 56.765625 -22.75 Z M 20.78125 -32.34375 L 39.90625 -32.34375 C 39.507812 -34.957031 38.476562 -36.96875 36.8125 -38.375 C 35.144531 -39.78125 33.003906 -40.484375 30.390625 -40.484375 C 27.515625 -40.484375 25.226562 -39.734375 23.53125 -38.234375 C 21.832031 -36.734375 20.914062 -34.769531 20.78125 -32.34375 Z M 20.78125 -32.34375 "/></g></g></g><g clip-path="url(#3e1e2695f9)"><path fill="#322f30" d="M 248.628906 144.703125 L 252.753906 144.703125 L 252.753906 189.601562 L 248.628906 189.601562 Z M 248.628906 144.703125 " fill-opacity="1" fill-rule="nonzero"/></g><path fill="#322f30" d="M 259.519531 156.613281 C 255.007812 155.414062 251.695312 152.546875 249.90625 148.339844 C 248.585938 145.230469 248.605469 142.445312 248.605469 142.34375 L 252.734375 142.386719 L 250.660156 142.367188 L 252.734375 142.386719 C 252.734375 142.710938 252.8125 150.578125 260.578125 152.628906 Z M 259.519531 156.613281 " fill-opacity="1" fill-rule="nonzero"/><path fill="#322f30" d="M 259.519531 168.441406 C 255.007812 167.242188 251.695312 164.378906 249.90625 160.171875 C 248.585938 157.058594 248.605469 154.277344 248.605469 154.175781 L 252.734375 154.214844 L 250.660156 154.195312 L 252.734375 154.214844 C 252.734375 154.539062 252.8125 162.40625 260.578125 164.457031 Z M 259.519531 168.441406 " fill-opacity="1" fill-rule="nonzero"/><path fill="#322f30" d="M 259.519531 180.292969 C 255.007812 179.09375 251.695312 176.226562 249.90625 172.019531 C 248.585938 168.910156 248.605469 166.125 248.605469 166.023438 L 252.734375 166.042969 C 252.734375 166.367188 252.8125 174.234375 260.578125 176.289062 Z M 259.519531 180.292969 " fill-opacity="1" fill-rule="nonzero"/><path fill="#322f30" d="M 241.839844 156.613281 L 240.78125 152.628906 C 248.546875 150.554688 248.628906 142.710938 248.628906 142.386719 L 252.753906 142.367188 C 252.753906 142.488281 252.773438 145.273438 251.453125 148.363281 C 249.683594 152.546875 246.351562 155.414062 241.839844 156.613281 Z M 241.839844 156.613281 " fill-opacity="1" fill-rule="nonzero"/><path fill="#322f30" d="M 241.839844 168.441406 L 240.78125 164.457031 C 248.546875 162.386719 248.628906 154.539062 248.628906 154.214844 L 252.753906 154.195312 C 252.753906 154.316406 252.773438 157.101562 251.453125 160.191406 C 249.683594 164.398438 246.351562 167.242188 241.839844 168.441406 Z M 241.839844 168.441406 " fill-opacity="1" fill-rule="nonzero"/><path fill="#322f30" d="M 241.839844 180.292969 L 240.78125 176.308594 C 248.546875 174.234375 248.628906 166.390625 248.628906 166.0625 L 252.753906 166.042969 C 252.753906 166.164062 252.773438 168.949219 251.453125 172.039062 C 249.683594 176.226562 246.351562 179.09375 241.839844 180.292969 Z M 241.839844 180.292969 " fill-opacity="1" fill-rule="nonzero"/><path fill="#322f30" d="M 217.898438 187.769531 L 153.773438 187.769531 C 177.207031 176.226562 183.652344 150.757812 185.296875 140.78125 C 185.335938 140.515625 185.378906 140.253906 185.417969 140.007812 C 185.742188 137.894531 185.824219 136.65625 185.824219 136.65625 C 185.824219 136.65625 185.90625 137.8125 186.210938 139.804688 C 186.273438 140.191406 186.332031 140.617188 186.414062 141.085938 C 188.164062 151.246094 194.707031 176.328125 217.898438 187.769531 Z M 217.898438 187.769531 " fill-opacity="1" fill-rule="nonzero"/><path fill="#322f30" d="M 204.644531 120.171875 L 189.078125 136.734375 L 186.230469 139.785156 L 185.722656 140.3125 L 185.296875 140.761719 L 141.191406 187.769531 L 134.484375 187.769531 L 182.390625 136.734375 L 185.722656 133.179688 L 201.089844 116.816406 Z M 204.644531 120.171875 " fill-opacity="1" fill-rule="nonzero"/><path fill="#322f30" d="M 236.960938 187.769531 L 230.273438 187.769531 L 186.433594 141.066406 L 185.722656 140.3125 L 185.417969 139.988281 L 182.390625 136.734375 L 166.820312 120.171875 L 170.378906 116.816406 L 185.722656 133.179688 L 189.078125 136.734375 Z M 236.960938 187.769531 " fill-opacity="1" fill-rule="nonzero"/><g clip-path="url(#a476001754)"><path fill="#322f30" d="M 118.714844 185.941406 L 262.792969 185.941406 L 262.792969 189.578125 L 118.714844 189.578125 Z M 118.714844 185.941406 " fill-opacity="1" fill-rule="nonzero"/></g><path fill="#322f30" d="M 144.464844 117.8125 C 144.464844 118.46875 144.402344 119.117188 144.273438 119.761719 C 144.144531 120.402344 143.957031 121.027344 143.707031 121.632812 C 143.453125 122.238281 143.148438 122.8125 142.785156 123.359375 C 142.417969 123.902344 142.003906 124.40625 141.542969 124.871094 C 141.078125 125.332031 140.574219 125.746094 140.03125 126.113281 C 139.484375 126.476562 138.910156 126.78125 138.304688 127.035156 C 137.699219 127.285156 137.074219 127.472656 136.433594 127.601562 C 135.789062 127.730469 135.140625 127.792969 134.484375 127.792969 C 133.832031 127.792969 133.179688 127.730469 132.539062 127.601562 C 131.894531 127.472656 131.273438 127.285156 130.667969 127.035156 C 130.0625 126.78125 129.488281 126.476562 128.941406 126.113281 C 128.398438 125.746094 127.894531 125.332031 127.429688 124.871094 C 126.964844 124.40625 126.550781 123.902344 126.1875 123.359375 C 125.824219 122.8125 125.515625 122.238281 125.265625 121.632812 C 125.015625 121.027344 124.824219 120.402344 124.699219 119.761719 C 124.570312 119.117188 124.507812 118.46875 124.507812 117.8125 C 124.507812 117.160156 124.570312 116.507812 124.699219 115.867188 C 124.824219 115.222656 125.015625 114.601562 125.265625 113.996094 C 125.515625 113.390625 125.824219 112.816406 126.1875 112.269531 C 126.550781 111.726562 126.964844 111.222656 127.429688 110.757812 C 127.894531 110.292969 128.398438 109.878906 128.941406 109.515625 C 129.488281 109.152344 130.0625 108.84375 130.667969 108.59375 C 131.273438 108.34375 131.894531 108.152344 132.539062 108.027344 C 133.179688 107.898438 133.832031 107.835938 134.484375 107.835938 C 135.140625 107.835938 135.789062 107.898438 136.433594 108.027344 C 137.074219 108.152344 137.699219 108.34375 138.304688 108.59375 C 138.910156 108.84375 139.484375 109.152344 140.03125 109.515625 C 140.574219 109.878906 141.078125 110.292969 141.542969 110.757812 C 142.003906 111.222656 142.417969 111.726562 142.785156 112.269531 C 143.148438 112.816406 143.453125 113.390625 143.707031 113.996094 C 143.957031 114.601562 144.144531 115.222656 144.273438 115.867188 C 144.402344 116.507812 144.464844 117.160156 144.464844 117.8125 Z M 144.464844 117.8125 " fill-opacity="1" fill-rule="nonzero"/><path fill="#322f30" d="M 119.433594 133.4375 L 124.597656 127.554688 L 126.109375 128.882812 L 120.945312 134.761719 Z M 119.433594 133.4375 " fill-opacity="1" fill-rule="nonzero"/><g clip-path="url(#6f1c46ef0d)"><path fill="#322f30" d="M 112.804688 118.214844 L 120.613281 117.707031 L 120.746094 119.714844 L 112.9375 120.222656 Z M 112.804688 118.214844 " fill-opacity="1" fill-rule="nonzero"/></g><path fill="#322f30" d="M 117.539062 104.265625 L 118.867188 102.753906 L 124.75 107.917969 L 123.421875 109.429688 Z M 117.539062 104.265625 " fill-opacity="1" fill-rule="nonzero"/><g clip-path="url(#41ac1c5f64)"><path fill="#322f30" d="M 132.082031 96.242188 L 134.089844 96.113281 L 134.597656 103.921875 L 132.589844 104.050781 Z M 132.082031 96.242188 " fill-opacity="1" fill-rule="nonzero"/></g><path fill="#322f30" d="M 142.871094 106.742188 L 148.03125 100.863281 L 149.546875 102.191406 L 144.382812 108.070312 Z M 142.871094 106.742188 " fill-opacity="1" fill-rule="nonzero"/><path fill="#322f30" d="M 148.253906 115.898438 L 156.058594 115.386719 L 156.191406 117.394531 L 148.382812 117.90625 Z M 148.253906 115.898438 " fill-opacity="1" fill-rule="nonzero"/><path fill="#322f30" d="M 144.21875 127.691406 L 145.542969 126.179688 L 151.425781 131.339844 L 150.097656 132.851562 Z M 144.21875 127.691406 " fill-opacity="1" fill-rule="nonzero"/><path fill="#322f30" d="M 134.398438 131.691406 L 136.40625 131.558594 L 136.914062 139.367188 L 134.90625 139.496094 Z M 134.398438 131.691406 " fill-opacity="1" fill-rule="nonzero"/><g fill="#322f30" fill-opacity="1"><g transform="translate(156.992586, 267.641759)"><g><path d="M 3.609375 0 L 3.609375 -8.21875 L 0.453125 -8.21875 L 0.453125 -9.34375 L 7.9375 -9.34375 L 7.9375 -8.21875 L 4.796875 -8.21875 L 4.796875 0 Z M 3.609375 0 "/></g></g></g><g fill="#322f30" fill-opacity="1"><g transform="translate(168.543858, 267.641759)"><g><path d="M 1.359375 0 L 1.359375 -9.34375 L 4.921875 -9.34375 C 5.566406 -9.34375 6.128906 -9.21875 6.609375 -8.96875 C 7.097656 -8.726562 7.472656 -8.382812 7.734375 -7.9375 C 8.003906 -7.488281 8.140625 -6.957031 8.140625 -6.34375 C 8.140625 -5.582031 7.941406 -4.953125 7.546875 -4.453125 C 7.160156 -3.960938 6.625 -3.632812 5.9375 -3.46875 L 8.28125 0 L 6.875 0 L 4.59375 -3.34375 L 2.53125 -3.34375 L 2.53125 0 Z M 2.53125 -4.46875 L 4.796875 -4.46875 C 5.472656 -4.46875 6 -4.628906 6.375 -4.953125 C 6.75 -5.273438 6.9375 -5.738281 6.9375 -6.34375 C 6.9375 -6.9375 6.75 -7.394531 6.375 -7.71875 C 6 -8.050781 5.472656 -8.21875 4.796875 -8.21875 L 2.53125 -8.21875 Z M 2.53125 -4.46875 "/></g></g></g><g fill="#322f30" fill-opacity="1"><g transform="translate(180.775262, 267.641759)"><g><path d="M 5.609375 0.171875 C 4.660156 0.171875 3.820312 -0.03125 3.09375 -0.4375 C 2.363281 -0.851562 1.796875 -1.425781 1.390625 -2.15625 C 0.984375 -2.882812 0.78125 -3.722656 0.78125 -4.671875 C 0.78125 -5.617188 0.984375 -6.453125 1.390625 -7.171875 C 1.796875 -7.898438 2.363281 -8.472656 3.09375 -8.890625 C 3.820312 -9.304688 4.660156 -9.515625 5.609375 -9.515625 C 6.554688 -9.515625 7.390625 -9.304688 8.109375 -8.890625 C 8.835938 -8.472656 9.410156 -7.898438 9.828125 -7.171875 C 10.242188 -6.453125 10.453125 -5.617188 10.453125 -4.671875 C 10.453125 -3.722656 10.242188 -2.882812 9.828125 -2.15625 C 9.410156 -1.425781 8.835938 -0.851562 8.109375 -0.4375 C 7.390625 -0.03125 6.554688 0.171875 5.609375 0.171875 Z M 1.96875 -4.671875 C 1.96875 -3.953125 2.117188 -3.316406 2.421875 -2.765625 C 2.734375 -2.210938 3.160156 -1.78125 3.703125 -1.46875 C 4.253906 -1.15625 4.890625 -1 5.609375 -1 C 6.328125 -1 6.957031 -1.15625 7.5 -1.46875 C 8.039062 -1.78125 8.460938 -2.210938 8.765625 -2.765625 C 9.078125 -3.316406 9.234375 -3.953125 9.234375 -4.671875 C 9.234375 -5.398438 9.078125 -6.035156 8.765625 -6.578125 C 8.460938 -7.128906 8.039062 -7.5625 7.5 -7.875 C 6.957031 -8.1875 6.328125 -8.34375 5.609375 -8.34375 C 4.890625 -8.34375 4.253906 -8.1875 3.703125 -7.875 C 3.160156 -7.5625 2.734375 -7.128906 2.421875 -6.578125 C 2.117188 -6.035156 1.96875 -5.398438 1.96875 -4.671875 Z M 1.96875 -4.671875 "/></g></g></g><g fill="#322f30" fill-opacity="1"><g transform="translate(195.127085, 267.641759)"><g><path d="M 5.609375 0.171875 C 4.660156 0.171875 3.820312 -0.03125 3.09375 -0.4375 C 2.363281 -0.851562 1.796875 -1.425781 1.390625 -2.15625 C 0.984375 -2.882812 0.78125 -3.722656 0.78125 -4.671875 C 0.78125 -5.617188 0.984375 -6.453125 1.390625 -7.171875 C 1.796875 -7.898438 2.363281 -8.472656 3.09375 -8.890625 C 3.820312 -9.304688 4.660156 -9.515625 5.609375 -9.515625 C 6.554688 -9.515625 7.390625 -9.304688 8.109375 -8.890625 C 8.835938 -8.472656 9.410156 -7.898438 9.828125 -7.171875 C 10.242188 -6.453125 10.453125 -5.617188 10.453125 -4.671875 C 10.453125 -3.722656 10.242188 -2.882812 9.828125 -2.15625 C 9.410156 -1.425781 8.835938 -0.851562 8.109375 -0.4375 C 7.390625 -0.03125 6.554688 0.171875 5.609375 0.171875 Z M 1.96875 -4.671875 C 1.96875 -3.953125 2.117188 -3.316406 2.421875 -2.765625 C 2.734375 -2.210938 3.160156 -1.78125 3.703125 -1.46875 C 4.253906 -1.15625 4.890625 -1 5.609375 -1 C 6.328125 -1 6.957031 -1.15625 7.5 -1.46875 C 8.039062 -1.78125 8.460938 -2.210938 8.765625 -2.765625 C 9.078125 -3.316406 9.234375 -3.953125 9.234375 -4.671875 C 9.234375 -5.398438 9.078125 -6.035156 8.765625 -6.578125 C 8.460938 -7.128906 8.039062 -7.5625 7.5 -7.875 C 6.957031 -8.1875 6.328125 -8.34375 5.609375 -8.34375 C 4.890625 -8.34375 4.253906 -8.1875 3.703125 -7.875 C 3.160156 -7.5625 2.734375 -7.128906 2.421875 -6.578125 C 2.117188 -6.035156 1.96875 -5.398438 1.96875 -4.671875 Z M 1.96875 -4.671875 "/></g></g></g><g fill="#322f30" fill-opacity="1"><g transform="translate(209.478908, 267.641759)"><g><path d="M 1.359375 0 L 1.359375 -9.34375 L 4.53125 -9.34375 C 5.226562 -9.34375 5.835938 -9.210938 6.359375 -8.953125 C 6.878906 -8.691406 7.28125 -8.328125 7.5625 -7.859375 C 7.851562 -7.398438 8 -6.847656 8 -6.203125 C 8 -5.566406 7.851562 -5.015625 7.5625 -4.546875 C 7.28125 -4.078125 6.878906 -3.710938 6.359375 -3.453125 C 5.835938 -3.191406 5.226562 -3.0625 4.53125 -3.0625 L 2.53125 -3.0625 L 2.53125 0 Z M 2.53125 -4.15625 L 4.5 -4.15625 C 6.03125 -4.15625 6.796875 -4.832031 6.796875 -6.1875 C 6.796875 -7.539062 6.03125 -8.21875 4.5 -8.21875 L 2.53125 -8.21875 Z M 2.53125 -4.15625 "/></g></g></g><g fill="#322f30" fill-opacity="1"><g transform="translate(134.0004, 285.641758)"><g><path d="M 0.234375 0 L 4.0625 -9.34375 L 5.15625 -9.34375 L 9 0 L 7.765625 0 L 6.890625 -2.125 L 2.328125 -2.125 L 1.484375 0 Z M 2.78125 -3.21875 L 6.4375 -3.21875 L 4.609375 -7.703125 Z M 2.78125 -3.21875 "/></g></g></g><g fill="#322f30" fill-opacity="1"><g transform="translate(146.378495, 285.641758)"><g><path d="M 1.359375 0 L 1.359375 -9.34375 L 4.59375 -9.34375 C 5.550781 -9.34375 6.390625 -9.144531 7.109375 -8.75 C 7.828125 -8.351562 8.382812 -7.804688 8.78125 -7.109375 C 9.175781 -6.410156 9.375 -5.597656 9.375 -4.671875 C 9.375 -3.753906 9.175781 -2.941406 8.78125 -2.234375 C 8.382812 -1.535156 7.828125 -0.988281 7.109375 -0.59375 C 6.390625 -0.195312 5.550781 0 4.59375 0 Z M 2.53125 -1.125 L 4.59375 -1.125 C 5.300781 -1.125 5.921875 -1.269531 6.453125 -1.5625 C 6.992188 -1.863281 7.414062 -2.28125 7.71875 -2.8125 C 8.03125 -3.34375 8.1875 -3.960938 8.1875 -4.671875 C 8.1875 -5.378906 8.03125 -6 7.71875 -6.53125 C 7.414062 -7.0625 6.988281 -7.472656 6.4375 -7.765625 C 5.894531 -8.066406 5.257812 -8.21875 4.53125 -8.21875 L 2.53125 -8.21875 Z M 2.53125 -1.125 "/></g></g></g><g fill="#322f30" fill-opacity="1"><g transform="translate(159.676775, 285.641758)"><g><path d="M 3.953125 0 L 0.234375 -9.34375 L 1.484375 -9.34375 L 3.03125 -5.40625 L 4.5 -1.6875 L 5.953125 -5.40625 L 7.515625 -9.34375 L 8.75 -9.34375 L 5.046875 0 Z M 3.953125 0 "/></g></g></g><g fill="#322f30" fill-opacity="1"><g transform="translate(171.801486, 285.641758)"><g><path d="M 1.359375 0 L 1.359375 -9.34375 L 7.03125 -9.34375 L 7.03125 -8.25 L 2.53125 -8.25 L 2.53125 -5.296875 L 6.703125 -5.296875 L 6.703125 -4.21875 L 2.53125 -4.21875 L 2.53125 -1.09375 L 7.171875 -1.09375 L 7.171875 0 Z M 1.359375 0 "/></g></g></g><g fill="#322f30" fill-opacity="1"><g transform="translate(182.99268, 285.641758)"><g><path d="M 1.359375 0 L 1.359375 -9.34375 L 2.46875 -9.34375 L 7.625 -2.03125 L 7.625 -9.34375 L 8.78125 -9.34375 L 8.78125 0 L 7.6875 0 L 2.515625 -7.3125 L 2.515625 0 Z M 1.359375 0 "/></g></g></g><g fill="#322f30" fill-opacity="1"><g transform="translate(196.277627, 285.641758)"><g><path d="M 3.609375 0 L 3.609375 -8.21875 L 0.453125 -8.21875 L 0.453125 -9.34375 L 7.9375 -9.34375 L 7.9375 -8.21875 L 4.796875 -8.21875 L 4.796875 0 Z M 3.609375 0 "/></g></g></g><g fill="#322f30" fill-opacity="1"><g transform="translate(207.828898, 285.641758)"><g><path d="M 4.859375 0.15625 C 3.722656 0.15625 2.835938 -0.191406 2.203125 -0.890625 C 1.566406 -1.597656 1.25 -2.566406 1.25 -3.796875 L 1.25 -9.34375 L 2.421875 -9.34375 L 2.421875 -3.890625 C 2.421875 -2.929688 2.628906 -2.207031 3.046875 -1.71875 C 3.460938 -1.226562 4.066406 -0.984375 4.859375 -0.984375 C 6.484375 -0.984375 7.296875 -1.953125 7.296875 -3.890625 L 7.296875 -9.34375 L 8.46875 -9.34375 L 8.46875 -3.796875 C 8.46875 -2.566406 8.144531 -1.597656 7.5 -0.890625 C 6.863281 -0.191406 5.984375 0.15625 4.859375 0.15625 Z M 4.859375 0.15625 "/></g></g></g><g fill="#322f30" fill-opacity="1"><g transform="translate(220.700428, 285.641758)"><g><path d="M 1.359375 0 L 1.359375 -9.34375 L 4.921875 -9.34375 C 5.566406 -9.34375 6.128906 -9.21875 6.609375 -8.96875 C 7.097656 -8.726562 7.472656 -8.382812 7.734375 -7.9375 C 8.003906 -7.488281 8.140625 -6.957031 8.140625 -6.34375 C 8.140625 -5.582031 7.941406 -4.953125 7.546875 -4.453125 C 7.160156 -3.960938 6.625 -3.632812 5.9375 -3.46875 L 8.28125 0 L 6.875 0 L 4.59375 -3.34375 L 2.53125 -3.34375 L 2.53125 0 Z M 2.53125 -4.46875 L 4.796875 -4.46875 C 5.472656 -4.46875 6 -4.628906 6.375 -4.953125 C 6.75 -5.273438 6.9375 -5.738281 6.9375 -6.34375 C 6.9375 -6.9375 6.75 -7.394531 6.375 -7.71875 C 6 -8.050781 5.472656 -8.21875 4.796875 -8.21875 L 2.53125 -8.21875 Z M 2.53125 -4.46875 "/></g></g></g><g fill="#322f30" fill-opacity="1"><g transform="translate(232.931832, 285.641758)"><g><path d="M 1.359375 0 L 1.359375 -9.34375 L 7.03125 -9.34375 L 7.03125 -8.25 L 2.53125 -8.25 L 2.53125 -5.296875 L 6.703125 -5.296875 L 6.703125 -4.21875 L 2.53125 -4.21875 L 2.53125 -1.09375 L 7.171875 -1.09375 L 7.171875 0 Z M 1.359375 0 "/></g></g></g></svg>